<svg width="35" height="58" viewBox="0 0 35 58" fill="none" xmlns="http://www.w3.org/2000/svg">
<path d="M8.75 0H26.25C28.5706 0 30.7962 0.916604 32.4372 2.54817C34.0781 4.17974 35 6.39262 35 8.7V49.3C35 51.6074 34.0781 53.8203 32.4372 55.4518C30.7962 57.0834 28.5706 58 26.25 58H8.75C6.42936 58 4.20376 57.0834 2.56282 55.4518C0.921872 53.8203 0 51.6074 0 49.3L0 8.7C0 6.39262 0.921872 4.17974 2.56282 2.54817C4.20376 0.916604 6.42936 0 8.75 0ZM8.75 5.8C7.97645 5.8 7.23459 6.10553 6.68761 6.64939C6.14062 7.19325 5.83333 7.93087 5.83333 8.7V49.3C5.83333 50.0691 6.14062 50.8068 6.68761 51.3506C7.23459 51.8945 7.97645 52.2 8.75 52.2H26.25C27.0235 52.2 27.7654 51.8945 28.3124 51.3506C28.8594 50.8068 29.1667 50.0691 29.1667 49.3V8.7C29.1667 7.93087 28.8594 7.19325 28.3124 6.64939C27.7654 6.10553 27.0235 5.8 26.25 5.8H8.75ZM17.5 49.3C16.7265 49.3 15.9846 48.9945 15.4376 48.4506C14.8906 47.9068 14.5833 47.1691 14.5833 46.4C14.5833 45.6309 14.8906 44.8932 15.4376 44.3494C15.9846 43.8055 16.7265 43.5 17.5 43.5C18.2735 43.5 19.0154 43.8055 19.5624 44.3494C20.1094 44.8932 20.4167 45.6309 20.4167 46.4C20.4167 47.1691 20.1094 47.9068 19.5624 48.4506C19.0154 48.9945 18.2735 49.3 17.5 49.3Z" fill="#005DAA"/>
</svg>
