<svg width="56" height="56" viewBox="0 0 56 56" fill="none" xmlns="http://www.w3.org/2000/svg">
<path d="M29.3158 49.5605C26.9342 51.2132 23.1053 50.329 22.2763 46.9026C22.1081 46.2084 21.7784 45.5637 21.3139 45.0211C20.8495 44.4784 20.2635 44.053 19.6035 43.7796C18.9436 43.5062 18.2285 43.3925 17.5164 43.4477C16.8042 43.5029 16.1151 43.7255 15.5053 44.0974C11.4447 46.5711 6.79474 41.9237 9.26842 37.8605C9.63974 37.2509 9.86198 36.5623 9.91706 35.8506C9.97215 35.1389 9.85853 34.4243 9.58545 33.7648C9.31237 33.1053 8.88753 32.5195 8.34545 32.0551C7.80338 31.5907 7.15938 31.2608 6.46579 31.0921C1.84474 29.9711 1.84474 23.3974 6.46579 22.2763C7.16 22.1081 7.80468 21.7784 8.34737 21.3139C8.89005 20.8495 9.31541 20.2635 9.58881 19.6035C9.8622 18.9436 9.97592 18.2285 9.92071 17.5164C9.86549 16.8042 9.6429 16.1151 9.27105 15.5053C6.79737 11.4447 11.4447 6.79474 15.5079 9.26842C18.1395 10.8684 21.55 9.45263 22.2763 6.46579C23.3974 1.84474 29.9711 1.84474 31.0921 6.46579C31.2603 7.16 31.5901 7.80468 32.0545 8.34737C32.5189 8.89005 33.105 9.31541 33.7649 9.58881C34.4248 9.86221 35.1399 9.97592 35.8521 9.92071C36.5642 9.86549 37.2533 9.6429 37.8632 9.27105C41.9237 6.79737 46.5737 11.4447 44.1 15.5079C43.7287 16.1175 43.5064 16.8062 43.4514 17.5178C43.3963 18.2295 43.5099 18.9441 43.783 19.6036C44.0561 20.2631 44.4809 20.8489 45.023 21.3133C45.565 21.7777 46.209 22.1076 46.9026 22.2763C50.8289 23.2289 51.4184 28.1158 48.6763 30.25" stroke="#005DAA" stroke-width="6" stroke-linecap="round" stroke-linejoin="round"/>
<path d="M18.7895 26.6838C18.7895 28.7776 19.6213 30.7857 21.1018 32.2662C22.5824 33.7468 24.5904 34.5785 26.6842 34.5785C28.778 34.5785 30.7861 33.7468 32.2666 32.2662C33.7472 30.7857 34.579 28.7776 34.579 26.6838C34.579 24.59 33.7472 22.5819 32.2666 21.1014C30.7861 19.6208 28.778 18.7891 26.6842 18.7891C24.5904 18.7891 22.5824 19.6208 21.1018 21.1014C19.6213 22.5819 18.7895 24.59 18.7895 26.6838ZM39.8421 52.9996L53 45.1049L39.8421 37.2101V52.9996Z" stroke="#005DAA" stroke-width="6" stroke-linecap="round" stroke-linejoin="round"/>
</svg>
