<svg width="51" height="42" viewBox="0 0 51 42" fill="none" xmlns="http://www.w3.org/2000/svg">
<path d="M27.3324 0.0131681C27.6044 0.0437335 27.8677 0.127589 28.1072 0.259944C28.3468 0.392298 28.5579 0.570558 28.7286 0.784537C28.8992 0.998516 29.026 1.24402 29.1017 1.50702C29.1775 1.77003 29.2006 2.04538 29.1699 2.31733L25.0032 39.8173C24.9413 40.3666 24.6638 40.8687 24.2317 41.2133C23.7996 41.5579 23.2483 41.7167 22.6991 41.6548C22.1498 41.593 21.6477 41.3154 21.3031 40.8833C20.9585 40.4512 20.7997 39.8999 20.8616 39.3507L25.0282 1.85067C25.0588 1.57869 25.1427 1.3154 25.275 1.07584C25.4074 0.836287 25.5856 0.625155 25.7996 0.454514C26.0136 0.283872 26.2591 0.157065 26.5221 0.081337C26.7851 0.00560911 27.0604 -0.017555 27.3324 0.0131681ZM13.2491 8.8465C13.6751 8.50845 14.2165 8.35041 14.7575 8.40615C15.2985 8.46188 15.7963 8.72698 16.1444 9.14479C16.4926 9.56261 16.6636 10.1 16.6209 10.6422C16.5781 11.1844 16.3251 11.6884 15.9157 12.0465L5.3324 20.8798L15.9157 29.7132C16.311 30.0751 16.5517 30.5754 16.5876 31.1102C16.6235 31.645 16.4519 32.173 16.1085 32.5845C15.7651 32.996 15.2764 33.2594 14.7438 33.3198C14.2113 33.3802 13.6759 33.2331 13.2491 32.909L0.749063 22.4923C0.514602 22.2968 0.325978 22.0522 0.196536 21.7757C0.0670946 21.4992 0 21.1976 0 20.8923C0 20.587 0.0670946 20.2855 0.196536 20.009C0.325978 19.7325 0.514602 19.4879 0.749063 19.2923L13.2491 8.87567V8.8465ZM33.8324 9.0965C34.1867 8.67291 34.6947 8.40732 35.2447 8.35809C35.7948 8.30887 36.3418 8.48005 36.7657 8.834L49.2657 19.2507C49.5002 19.4462 49.6888 19.6908 49.8183 19.9673C49.9477 20.2438 50.0148 20.5454 50.0148 20.8507C50.0148 21.156 49.9477 21.4575 49.8183 21.734C49.6888 22.0105 49.5002 22.2551 49.2657 22.4507L36.7657 32.8673C36.3397 33.2054 35.7983 33.3634 35.2573 33.3077C34.7163 33.252 34.2185 32.9869 33.8703 32.569C33.5222 32.1512 33.3512 31.6138 33.3939 31.0716C33.4367 30.5294 33.6897 30.0254 34.0991 29.6673L44.6824 20.834L34.0991 12.0007C33.6749 11.647 33.4085 11.1393 33.3585 10.5892C33.3085 10.0391 33.4789 9.49174 33.8324 9.06733V9.0965Z" fill="#005DAA"/>
</svg>
