<svg width="50" height="50" viewBox="0 0 50 50" fill="none" xmlns="http://www.w3.org/2000/svg">
<path d="M25 50C18.0093 50 12.0954 48.9241 7.25833 46.7722C2.4213 44.6204 0.00185185 41.9926 0 38.8889V11.1111C0 8.05556 2.44259 5.43982 7.32778 3.26389C12.213 1.08796 18.1037 0 25 0C31.8963 0 37.788 1.08796 42.675 3.26389C47.562 5.43982 50.0037 8.05556 50 11.1111V38.8889C50 41.9907 47.5806 44.6185 42.7417 46.7722C37.9028 48.9259 31.9889 50.0019 25 50ZM25 16.7361C29.1204 16.7361 33.2639 16.1454 37.4306 14.9639C41.5972 13.7824 43.9352 12.5213 44.4444 11.1806C43.9352 9.83796 41.6093 8.56481 37.4667 7.36111C33.3241 6.15741 29.1685 5.55556 25 5.55556C20.787 5.55556 16.6556 6.1463 12.6056 7.32778C8.55556 8.50926 6.20556 9.79352 5.55556 11.1806C6.2037 12.5694 8.5537 13.8426 12.6056 15C16.6574 16.1574 20.7889 16.7361 25 16.7361ZM25 30.5556C26.9444 30.5556 28.8194 30.463 30.625 30.2778C32.4306 30.0926 34.1556 29.8259 35.8 29.4778C37.4444 29.1296 38.9954 28.7019 40.4528 28.1944C41.9102 27.687 43.2407 27.1083 44.4444 26.4583V18.125C43.2407 18.7731 41.9102 19.3518 40.4528 19.8611C38.9954 20.3704 37.4444 20.7991 35.8 21.1472C34.1556 21.4954 32.4306 21.7611 30.625 21.9444C28.8194 22.1278 26.9444 22.2204 25 22.2222C23.0556 22.2241 21.1574 22.1315 19.3056 21.9444C17.4537 21.7574 15.7056 21.4907 14.0611 21.1444C12.4167 20.7981 10.8778 20.3704 9.44444 19.8611C8.01111 19.3518 6.71481 18.7731 5.55556 18.125V26.4583C6.71296 27.1065 8.00926 27.6852 9.44444 28.1944C10.8796 28.7037 12.4194 29.1324 14.0639 29.4806C15.7083 29.8287 17.4556 30.0944 19.3056 30.2778C21.1556 30.4611 23.0537 30.5537 25 30.5556ZM25 44.4444C27.1296 44.4444 29.2944 44.2824 31.4944 43.9583C33.6944 43.6343 35.7194 43.2065 37.5694 42.675C39.4194 42.1435 40.9704 41.5417 42.2222 40.8694C43.4741 40.1972 44.2148 39.5139 44.4444 38.8194V32.0139C43.2407 32.662 41.9102 33.2407 40.4528 33.75C38.9954 34.2593 37.4444 34.688 35.8 35.0361C34.1556 35.3843 32.4306 35.65 30.625 35.8333C28.8194 36.0167 26.9444 36.1093 25 36.1111C23.0556 36.113 21.1574 36.0204 19.3056 35.8333C17.4537 35.6463 15.7056 35.3796 14.0611 35.0333C12.4167 34.687 10.8778 34.2593 9.44444 33.75C8.01111 33.2407 6.71481 32.662 5.55556 32.0139V38.8889C5.78704 39.5833 6.51667 40.2546 7.74444 40.9028C8.97222 41.5509 10.5111 42.1417 12.3611 42.675C14.2111 43.2083 16.2481 43.6361 18.4722 43.9583C20.6963 44.2806 22.8722 44.4426 25 44.4444Z" fill="#005DAA"/>
</svg>
