<svg width="50" height="50" viewBox="0 0 50 50" fill="none" xmlns="http://www.w3.org/2000/svg">
<path d="M15.0139 49.9999C13.6376 49.9999 12.4599 49.5108 11.4806 48.5324C10.5014 47.5541 10.0109 46.3766 10.0093 44.9999C10.0076 43.6233 10.498 42.4466 11.4806 41.4699C12.4632 40.4933 13.6409 40.0033 15.0139 39.9999C16.3868 39.9966 17.5654 40.4866 18.5496 41.4699C19.5339 42.4533 20.0235 43.6299 20.0185 44.9999C20.0135 46.3699 19.5239 47.5474 18.5496 48.5324C17.5754 49.5174 16.3968 50.0066 15.0139 49.9999ZM40.037 49.9999C38.6607 49.9999 37.483 49.5108 36.5037 48.5324C35.5245 47.5541 35.034 46.3766 35.0324 44.9999C35.0307 43.6233 35.5212 42.4466 36.5037 41.4699C37.4863 40.4933 38.6641 40.0033 40.037 39.9999C41.4099 39.9966 42.5885 40.4866 43.5728 41.4699C44.557 42.4533 45.0466 43.6299 45.0416 44.9999C45.0366 46.3699 44.547 47.5474 43.5728 48.5324C42.5985 49.5174 41.4199 50.0066 40.037 49.9999ZM12.8869 9.99999L18.8925 22.5H36.4086L43.29 9.99999H12.8869ZM10.5097 4.99999H47.4188C48.378 4.99999 49.1079 5.42749 49.6083 6.28249C50.1088 7.13749 50.1297 8.00166 49.6709 8.87499L40.7877 24.875C40.3289 25.7083 39.7142 26.3541 38.9435 26.8125C38.1728 27.2708 37.3278 27.5 36.4086 27.5H17.7664L15.0139 32.5H42.5393C43.2483 32.5 43.843 32.74 44.3235 33.22C44.8039 33.7 45.0433 34.2933 45.0416 35C45.0399 35.7066 44.7997 36.3008 44.3209 36.7824C43.8422 37.2641 43.2483 37.5033 42.5393 37.5H15.0139C13.1371 37.5 11.7192 36.6775 10.7599 35.0325C9.80073 33.3875 9.75902 31.7516 10.6348 30.125L14.013 24L5.00463 4.99999H2.50232C1.79333 4.99999 1.19945 4.75999 0.720674 4.27999C0.241899 3.79999 0.00167684 3.20666 8.62866e-06 2.5C-0.00165958 1.79333 0.238562 1.2 0.720674 0.719999C1.20279 0.24 1.79667 0 2.50232 0H6.56858C7.02733 0 7.46524 0.125 7.88229 0.375C8.29934 0.624999 8.61213 0.979165 8.82066 1.4375L10.5097 4.99999Z" fill="#005DAA"/>
</svg>
