<svg width="38" height="40" viewBox="0 0 38 40" fill="none" xmlns="http://www.w3.org/2000/svg">
<path d="M13.7817 38.5V33.2143M13.7817 33.2143C13.7817 30.8651 14.3666 29.1032 15.5362 27.9286C13.1365 27.9123 10.7945 27.2407 8.79957 25.9969C6.80463 24.7531 5.24418 22.9915 4.311 20.9299C3.37783 18.8682 3.11283 16.5967 3.54875 14.3962C3.98466 12.1956 5.10239 10.1624 6.76384 8.54762C5.59418 6.19841 5.59418 3.84921 6.76384 1.5C10.2728 1.5 12.6121 2.6746 13.7817 5.02381C17.8755 3.84921 21.9693 3.84921 26.0631 5.02381C27.2327 2.6746 29.572 1.5 33.081 1.5C34.2506 3.84921 34.2506 6.19841 33.081 8.54762C34.7424 10.1624 35.8602 12.1956 36.2961 14.3962C36.732 16.5967 36.467 18.8682 35.5338 20.9299C34.6007 22.9915 33.0402 24.7531 31.0453 25.9969C29.0503 27.2407 26.7083 27.9123 24.3086 27.9286C25.4783 29.1032 26.0631 30.8651 26.0631 33.2143V38.5M13.7817 33.2143C6.76384 34.9762 6.76384 29.6905 1.5004 27.9286" stroke="white" stroke-width="3" stroke-linecap="round" stroke-linejoin="round"/>
</svg>
