<svg width="153" height="147" viewBox="0 0 153 147" fill="none" xmlns="http://www.w3.org/2000/svg">
<path d="M3.05176e-05 44.0272C3.05176e-05 41.3589 0.742355 38.9332 2.22702 36.75C3.7117 34.5668 5.8027 32.8082 8.50003 31.474L68 2.00124C70.6917 0.667079 73.525 0 76.5 0C79.475 0 82.3083 0.667079 85 2.00124L144.5 31.474C147.192 32.8082 149.28 34.5668 150.765 36.75C152.249 38.9332 152.994 41.3589 153 44.0272V102.973C153 105.641 152.255 108.067 150.765 110.25C149.274 112.433 147.186 114.192 144.5 115.526L85 144.999C82.3083 146.333 79.475 147 76.5 147C73.525 147 70.6917 146.333 68 144.999L8.50003 115.526C5.80836 114.192 3.71736 112.433 2.22702 110.25C0.736694 108.067 -0.00563049 105.641 3.05176e-05 102.973V44.0272ZM17 44.0272V102.973L76.5 132.264L136 102.973V44.0272L76.5 14.5545L17 44.0272Z" fill="#005DAA" fill-opacity="0.15"/>
</svg>
