<svg width="38" height="40" viewBox="0 0 38 40" fill="none" xmlns="http://www.w3.org/2000/svg">
<path d="M26 12.9604C28.7848 12.9604 31.4555 14.1679 33.4246 16.317C35.3938 18.4662 36.5 21.3812 36.5 24.4206V37.7907H29.5V24.4206C29.5 23.4074 29.1313 22.4358 28.4749 21.7194C27.8185 21.003 26.9283 20.6005 26 20.6005C25.0717 20.6005 24.1815 21.003 23.5251 21.7194C22.8687 22.4358 22.5 23.4074 22.5 24.4206V37.7907H15.5V24.4206C15.5 21.3812 16.6062 18.4662 18.5754 16.317C20.5445 14.1679 23.2152 12.9604 26 12.9604ZM1.5 14.8705H8.5V37.7907H1.5V14.8705Z" stroke="white" stroke-width="3" stroke-linecap="round" stroke-linejoin="round"/>
<path d="M5 9.14008C6.933 9.14008 8.5 7.42979 8.5 5.32004C8.5 3.21029 6.933 1.5 5 1.5C3.067 1.5 1.5 3.21029 1.5 5.32004C1.5 7.42979 3.067 9.14008 5 9.14008Z" stroke="white" stroke-width="3" stroke-linecap="round" stroke-linejoin="round"/>
</svg>
