<svg width="90" height="90" viewBox="0 0 90 90" fill="none" xmlns="http://www.w3.org/2000/svg">
<rect width="90" height="90" rx="20" fill="url(#paint0_linear_213_7)"/>
<path d="M30.0588 15.0298C15.4108 15.093 16.442 15.0425 15.6686 15.7885C14.9538 16.4713 15.0006 14.2332 15.0006 44.9587V73.1426L15.3873 73.8254C15.6569 74.3185 15.9029 74.5841 16.2897 74.799L16.817 75.0772L44.7537 75.0898C65.6243 75.0898 72.7959 75.0519 73.1358 74.9381C73.7451 74.7484 74.4834 74.053 74.7646 73.4082C74.999 72.9024 74.999 72.5231 74.999 44.8069C74.999 13.816 75.0576 16.3069 74.2725 15.5988C73.4405 14.8402 74.5889 14.8907 58.3823 14.9287C50.2145 14.9539 37.4766 14.9919 30.0588 15.0298ZM66.0696 30.0006L66.093 33.6547L65.6008 34.2364C65.0501 34.8686 64.9094 35.1088 62.4954 39.3067C59.4369 44.6299 58.9799 45.4392 57.8901 47.2726C55.3238 51.5842 53.2379 55.2384 53.1793 55.4787C53.1558 55.6051 54.4332 55.643 59.3901 55.6178L65.6243 55.6051V59.4616C65.6243 62.4077 65.5891 63.3434 65.4836 63.4192C65.4016 63.4698 64.1946 63.5204 62.8118 63.533C43.2772 63.6089 40.0195 63.5836 39.9843 63.4192C39.9609 63.2801 40.9218 61.3203 41.2382 60.8651C41.2968 60.7892 41.496 60.4226 41.6835 60.0432C41.871 59.6639 43.3241 57.0086 44.9061 54.1637C46.4881 51.3061 48.2107 48.183 48.7146 47.2093C49.2302 46.2357 49.9216 44.9587 50.238 44.3644C51.3629 42.3034 52.066 41.0137 52.3356 40.47C53.0387 39.117 53.2613 38.6871 53.5894 38.0423C53.7886 37.663 54.0347 37.1951 54.1636 37.0055C54.2808 36.8284 54.3746 36.6514 54.3746 36.6135C54.3746 36.5756 54.5855 36.1709 54.8433 35.7158C55.1011 35.2606 55.312 34.8433 55.312 34.7927C55.312 34.7421 55.4292 34.5778 55.5698 34.4134L55.8159 34.1226H50.8708H45.9139L45.9959 33.5157C46.031 33.1869 46.1717 32.4662 46.2888 31.9098C46.6287 30.3167 47.1912 27.5349 47.2732 27.0039C47.3201 26.751 47.4138 26.5361 47.4958 26.5361C48.3161 26.574 65.5774 26.3717 65.6243 26.3337C65.6477 26.2958 65.7532 26.2958 65.8586 26.3085C66.011 26.3464 66.0344 26.8269 66.0696 30.0006ZM44.9529 26.5866C44.9881 26.6878 44.824 27.4464 44.5897 28.2683C44.3553 29.0902 44.0623 30.1776 43.9334 30.6834C43.8045 31.1891 43.6405 31.8466 43.5467 32.1374C43.4647 32.4283 43.3241 32.9214 43.2421 33.2375C43.16 33.5536 43.0077 33.8823 42.9022 33.9582C42.7733 34.0846 41.6015 34.1226 37.9453 34.1226H33.1642V37.5871C33.1642 40.3182 33.1994 41.0769 33.3165 41.1907C33.4337 41.2792 35.1212 41.3424 38.8594 41.3551L44.2381 41.393L44.2147 41.7723C44.2147 41.9746 44.1561 43.6057 44.1092 45.3759C44.0623 47.1461 43.9803 48.6381 43.9217 48.6761C43.8631 48.714 41.4609 48.7646 38.5781 48.7772C35.6954 48.7899 33.2931 48.8531 33.2345 48.9163C33.1759 48.9795 33.1759 50.4716 33.2228 52.3176L33.3048 55.6178H37.2774C39.457 55.6178 41.2616 55.6683 41.2968 55.7189C41.3788 55.8706 40.0429 58.6903 39.1406 60.2961C38.9648 60.6122 38.4727 61.472 38.0274 62.218L37.2422 63.5836L31.6291 63.6089C28.5471 63.6215 25.9222 63.6342 25.8167 63.6342C25.6527 63.6468 25.5941 63.5077 25.5238 63.0146C25.4652 62.4709 25.4066 28.0407 25.4652 26.9786L25.4886 26.5993L31.9924 26.5361C45.7381 26.397 44.8826 26.397 44.9529 26.5866Z" fill="white"/>
<defs>
<linearGradient id="paint0_linear_213_7" x1="45" y1="0" x2="45" y2="90" gradientUnits="userSpaceOnUse">
<stop stop-color="#247BC3" stop-opacity="0.9"/>
<stop offset="1" stop-color="#004E90"/>
</linearGradient>
</defs>
</svg>
