<svg width="346" height="347" viewBox="0 0 346 347" fill="none" xmlns="http://www.w3.org/2000/svg">
<path d="M86.6607 0.686757C2.36393 1.05058 8.29842 0.759522 3.84756 5.05266C-0.266123 8.98198 0.00362612 -3.89744 0.00362612 172.922V335.115L2.22906 339.044C3.78012 341.882 5.1963 343.41 7.42174 344.647L10.4564 346.248L171.227 346.321C291.333 346.321 332.605 346.103 334.56 345.448C338.067 344.356 342.316 340.354 343.934 336.643C345.283 333.733 345.283 331.55 345.283 172.049C345.283 -6.29869 345.62 8.03603 341.102 3.96119C336.314 -0.404719 342.923 -0.113659 249.657 0.104637C202.653 0.250167 129.349 0.468462 86.6607 0.686757ZM293.896 86.8406L294.031 107.87L291.198 111.217C288.029 114.855 287.219 116.238 273.327 140.396C255.726 171.03 253.096 175.687 246.824 186.238C232.056 211.051 220.052 232.08 219.715 233.462C219.58 234.19 226.93 234.408 255.456 234.263L291.333 234.19V256.383C291.333 273.337 291.131 278.722 290.524 279.159C290.052 279.45 283.106 279.741 275.148 279.814C162.73 280.25 143.982 280.105 143.78 279.159C143.645 278.358 149.175 267.08 150.996 264.46C151.333 264.024 152.48 261.913 153.559 259.73C154.638 257.547 163 242.267 172.104 225.895C181.208 209.45 191.121 191.477 194.021 185.874C196.988 180.271 200.967 172.922 202.788 169.502C209.262 157.641 213.308 150.219 214.859 147.09C218.905 139.304 220.187 136.83 222.075 133.119C223.221 130.936 224.638 128.244 225.379 127.152C226.054 126.134 226.593 125.115 226.593 124.897C226.593 124.678 227.807 122.35 229.291 119.73C230.774 117.111 231.988 114.71 231.988 114.419C231.988 114.128 232.663 113.182 233.472 112.236L234.888 110.562H206.429H177.903L178.375 107.069C178.578 105.177 179.387 101.03 180.061 97.8281C182.017 88.6597 185.254 72.6514 185.726 69.5953C185.996 68.14 186.535 66.903 187.007 66.903C191.728 67.1213 291.063 65.957 291.333 65.7387C291.468 65.5204 292.075 65.5204 292.682 65.5932C293.559 65.8115 293.693 68.5766 293.896 86.8406ZM172.374 67.194C172.576 67.7762 171.632 72.1421 170.283 76.8718C168.934 81.6015 167.248 87.8593 166.507 90.7699C165.765 93.6805 164.821 97.4643 164.281 99.1379C163.809 100.811 163 103.649 162.528 105.468C162.056 107.288 161.179 109.179 160.572 109.616C159.83 110.344 153.086 110.562 132.046 110.562H104.532V130.5C104.532 146.217 104.734 150.583 105.408 151.238C106.083 151.747 115.794 152.111 137.306 152.184L168.26 152.402L168.125 154.585C168.125 155.749 167.788 165.136 167.518 175.323C167.248 185.51 166.776 194.096 166.439 194.315C166.102 194.533 152.277 194.824 135.688 194.897C119.098 194.97 105.273 195.333 104.936 195.697C104.599 196.061 104.599 204.647 104.869 215.271L105.341 234.263H128.202C140.745 234.263 151.131 234.554 151.333 234.845C151.805 235.718 144.117 251.945 138.925 261.186C137.913 263.005 135.081 267.953 132.518 272.246L128 280.105L95.6973 280.25C77.9612 280.323 62.8553 280.396 62.2483 280.396C61.3042 280.468 60.967 279.668 60.5624 276.83C60.2252 273.701 59.888 75.562 60.2252 69.4498L60.3601 67.2668L97.7878 66.903C176.892 66.1026 171.969 66.1026 172.374 67.194Z" fill="white"/>
</svg>
