<svg width="45" height="55" viewBox="0 0 45 55" fill="none" xmlns="http://www.w3.org/2000/svg">
<path d="M42.5338 22C42.5338 38.25 22.2669 52 22.2669 52C22.2669 52 2 38.25 2 22C2 16.6957 4.13526 11.6086 7.93603 7.85786C11.7368 4.10714 16.8918 2 22.2669 2C27.642 2 32.797 4.10714 36.5977 7.85786C40.3985 11.6086 42.5338 16.6957 42.5338 22Z" stroke="#005DAA" stroke-width="4"/>
<path d="M29.867 22C29.867 23.9891 29.0663 25.8968 27.641 27.3033C26.2157 28.7098 24.2826 29.5 22.2669 29.5C20.2512 29.5 18.3181 28.7098 16.8928 27.3033C15.4675 25.8968 14.6668 23.9891 14.6668 22C14.6668 20.0109 15.4675 18.1032 16.8928 16.6967C18.3181 15.2902 20.2512 14.5 22.2669 14.5C24.2826 14.5 26.2157 15.2902 27.641 16.6967C29.0663 18.1032 29.867 20.0109 29.867 22Z" stroke="#005DAA" stroke-width="4"/>
</svg>
