<svg width="43" height="43" viewBox="0 0 43 43" fill="none" xmlns="http://www.w3.org/2000/svg">
<path d="M38.3337 41.5338C39.1824 41.5338 39.9964 41.1966 40.5965 40.5965C41.1966 39.9964 41.5338 39.1824 41.5338 38.3337V30.867C41.5338 30.0183 41.1966 29.2044 40.5965 28.6042C39.9964 28.0041 39.1824 27.667 38.3337 27.667C35.8377 27.667 33.3844 27.283 31.0377 26.4936C30.4766 26.3165 29.8778 26.2965 29.3061 26.4356C28.7345 26.5748 28.2119 26.8678 27.795 27.283L24.7229 30.355C19.4156 27.4588 15.0537 23.0968 12.1575 17.7895L15.2082 14.7388C16.0828 13.9068 16.4028 12.6695 16.0188 11.4748C15.2508 9.14942 14.8668 6.69606 14.8668 4.20004C14.8668 3.35133 14.5297 2.53739 13.9296 1.93727C13.3294 1.33715 12.5155 1 11.6668 1H4.20004C3.35133 1 2.53739 1.33715 1.93727 1.93727C1.33715 2.53739 1 3.35133 1 4.20004C1 24.7869 17.7469 41.5338 38.3337 41.5338ZM4.20004 3.13336H11.6668C11.9497 3.13336 12.221 3.24574 12.421 3.44578C12.6211 3.64582 12.7335 3.91713 12.7335 4.20004C12.7335 6.93073 13.1601 9.59743 13.9921 12.1361C14.0988 12.4348 14.0775 12.8615 13.7361 13.2028L9.53343 17.3842C13.0535 24.2749 18.2162 29.4376 25.1283 33.0004L29.2883 28.7976C29.587 28.499 29.9923 28.4136 30.3763 28.5203C32.9364 29.3736 35.603 29.8003 38.3337 29.8003C38.6166 29.8003 38.888 29.9127 39.088 30.1127C39.288 30.3128 39.4004 30.5841 39.4004 30.867V38.3337C39.4004 38.6166 39.288 38.888 39.088 39.088C38.888 39.288 38.6166 39.4004 38.3337 39.4004C18.9202 39.4004 3.13336 23.6136 3.13336 4.20004C3.13336 3.91713 3.24574 3.64582 3.44578 3.44578C3.64582 3.24574 3.91713 3.13336 4.20004 3.13336Z" fill="#005DAA" stroke="#005DAA" stroke-width="2"/>
</svg>
