<svg width="38" height="44" viewBox="0 0 38 44" fill="none" xmlns="http://www.w3.org/2000/svg">
<path d="M36.4979 17.9003C36.4979 18.375 36.1137 18.7656 35.6443 18.7419C33.1359 18.6147 30.6861 17.9295 28.4697 16.735C27.87 16.4113 27.1082 16.8321 27.1082 17.5205V29.5531C27.108 32.0771 26.3784 34.546 25.0089 36.6562C23.6394 38.7664 21.6899 40.4258 19.4001 41.4303C17.1103 42.4349 14.5801 42.7408 12.1206 42.3103C9.66116 41.8799 7.37975 40.732 5.55696 39.0077C3.73418 37.2835 2.44953 35.0581 1.86101 32.6052C1.27249 30.1524 1.40576 27.5791 2.24445 25.2019C3.08313 22.8246 4.59065 20.7471 6.58158 19.2248C8.57251 17.7025 10.96 16.8019 13.4505 16.6336C13.5618 16.6276 13.6731 16.6449 13.7775 16.6844C13.8819 16.7239 13.9771 16.7848 14.0572 16.8631C14.1373 16.9415 14.2006 17.0357 14.243 17.1399C14.2855 17.2441 14.3063 17.356 14.3041 17.4687V23.5109C14.3041 23.9857 13.92 24.3676 13.4548 24.4453C12.4916 24.6091 11.5949 25.0479 10.8703 25.71C10.1457 26.3721 9.62338 27.23 9.36498 28.1824C9.10658 29.1347 9.12285 30.142 9.41188 31.0853C9.7009 32.0287 10.2506 32.8688 10.9963 33.5066C11.7419 34.1445 12.6523 34.5534 13.6202 34.6853C14.5881 34.8172 15.5731 34.6665 16.4591 34.2509C17.345 33.8354 18.0951 33.1724 18.6207 32.34C19.1463 31.5077 19.4256 30.5407 19.4257 29.5531V2.36317C19.4257 2.13425 19.5157 1.91469 19.6758 1.75282C19.8358 1.59094 20.053 1.5 20.2793 1.5H26.2546C26.4828 1.50589 26.7007 1.59759 26.8656 1.7572C27.0306 1.91681 27.1308 2.13287 27.1466 2.36317C27.3462 4.57446 28.3058 6.64508 29.8588 8.21499C31.4117 9.78491 33.4596 10.7548 35.6464 10.9561C36.1159 10.9992 36.5 11.3812 36.5 11.8581L36.4979 17.9003Z" stroke="white" stroke-width="3" stroke-linecap="round" stroke-linejoin="round"/>
</svg>
