<svg width="42" height="55" viewBox="0 0 42 55" fill="none" xmlns="http://www.w3.org/2000/svg">
<path d="M21 3.83721C10.9987 3.83721 3.9375 10.8542 3.9375 19.4905C3.9375 23.4198 5.5965 26.07 7.67813 28.5974C8.12963 29.1474 8.589 29.677 9.0615 30.2219L9.3135 30.5084C9.86475 31.1479 10.4344 31.8079 10.9673 32.4884C12.0278 33.8467 13.0226 35.374 13.5791 37.18C13.7154 37.663 13.6525 38.1788 13.4038 38.6171C13.155 39.0555 12.7402 39.3817 12.248 39.526C11.7558 39.6703 11.2252 39.6213 10.7695 39.3894C10.3139 39.1576 9.9694 38.7612 9.80962 38.2851C9.44738 37.1084 8.7675 36.0084 7.833 34.8137C7.33982 34.1923 6.8304 33.5832 6.30525 32.9872L6.06375 32.7058C5.59125 32.1635 5.0925 31.5905 4.60688 30.9995C2.28375 28.1805 0 24.6886 0 19.4879C0 8.60302 8.96437 0 21 0C33.0356 0 42 8.60047 42 19.4905C42 24.6886 39.7163 28.1805 37.3931 31.0021C36.9075 31.5905 36.4088 32.1635 35.9363 32.7084L35.6947 32.9872C35.1435 33.6216 34.6316 34.2177 34.167 34.8137C33.2325 36.0084 32.5526 37.1109 32.1904 38.2851C32.0228 38.7522 31.6768 39.1383 31.2244 39.363C30.772 39.5876 30.2481 39.6335 29.7619 39.491C29.2756 39.3486 28.8645 39.0288 28.6142 38.5983C28.3639 38.1677 28.2937 37.6597 28.4183 37.18C28.9774 35.374 29.9722 33.8467 31.0354 32.4884C31.5656 31.8079 32.1352 31.1479 32.6891 30.5084L32.9385 30.2219C33.411 29.677 33.8704 29.1474 34.3219 28.6C36.4035 26.0674 38.0625 23.4198 38.0625 19.4905C38.0625 10.8542 31.0012 3.83721 21 3.83721ZM12.4688 43.4884H29.5312C30.0534 43.4884 30.5542 43.6905 30.9234 44.0503C31.2926 44.4101 31.5 44.8981 31.5 45.407C31.5 45.9158 31.2926 46.4038 30.9234 46.7636C30.5542 47.1234 30.0534 47.3256 29.5312 47.3256H12.4688C11.9466 47.3256 11.4458 47.1234 11.0766 46.7636C10.7074 46.4038 10.5 45.9158 10.5 45.407C10.5 44.8981 10.7074 44.4101 11.0766 44.0503C11.4458 43.6905 11.9466 43.4884 12.4688 43.4884ZM14.4375 53.0814C14.4375 52.5726 14.6449 52.0845 15.0141 51.7247C15.3833 51.3649 15.8841 51.1628 16.4062 51.1628H25.5938C26.1159 51.1628 26.6167 51.3649 26.9859 51.7247C27.3551 52.0845 27.5625 52.5726 27.5625 53.0814C27.5625 53.5902 27.3551 54.0782 26.9859 54.4381C26.6167 54.7979 26.1159 55 25.5938 55H16.4062C15.8841 55 15.3833 54.7979 15.0141 54.4381C14.6449 54.0782 14.4375 53.5902 14.4375 53.0814Z" fill="#005DAA"/>
</svg>
