<svg width="88" height="88" viewBox="0 0 88 88" fill="none" xmlns="http://www.w3.org/2000/svg">
<path d="M12.2052 63.4882C6.05134 68.6574 4.00006 84.001 4.00006 84.001C4.00006 84.001 19.3437 81.9497 24.5129 75.7959C27.4257 72.3497 27.3847 67.0574 24.1437 63.8574C22.549 62.3354 20.4484 61.4559 18.2451 61.3878C16.0417 61.3196 13.8908 62.0676 12.2052 63.4882ZM42.9744 57.3343L30.6667 45.0267C32.8499 39.3628 35.5988 33.9336 38.8719 28.8215C43.6521 21.1784 50.3083 14.8853 58.2072 10.5409C66.1062 6.19644 74.9854 3.9451 84.0001 4.00102C84.0001 15.16 80.8001 34.7702 59.3847 49.1292C54.202 52.4048 48.7045 55.1536 42.9744 57.3343Z" stroke="#005DAA" stroke-width="8" stroke-linecap="round" stroke-linejoin="round"/>
<path d="M30.6667 45.0279H10.1539C10.1539 45.0279 12.4103 32.5972 18.3591 28.6177C25.0052 24.1869 38.8719 28.6177 38.8719 28.6177M42.9744 57.3356V77.8484C42.9744 77.8484 55.4052 75.592 59.3847 69.6433C63.8155 62.9972 59.3847 49.1305 59.3847 49.1305" stroke="#005DAA" stroke-width="8" stroke-linecap="round" stroke-linejoin="round"/>
</svg>
