<svg width="50" height="34" viewBox="0 0 50 34" fill="none" xmlns="http://www.w3.org/2000/svg">
<path d="M25.0173 34C19.4458 34 14.0528 31.9224 8.94553 27.8693C4.76687 24.4974 1.83823 20.6146 0.48106 18.571C0.166812 18.0971 0 17.5479 0 16.9872C0 16.4265 0.166812 15.8773 0.48106 15.4035C1.83823 13.3599 4.76687 9.44303 8.94553 6.10518C19.0886 -2.03506 30.9103 -2.03506 41.0534 6.10518C45.232 9.47709 48.1607 13.3599 49.5178 15.4035C50.1607 16.3912 50.1607 17.5833 49.5178 18.571C48.1607 20.6146 45.232 24.5314 41.0534 27.8693C35.9818 31.9564 30.5889 34 24.9816 34H25.0173ZM3.69542 16.9702C5.01687 18.9116 7.62407 22.3176 11.267 25.2467C20.0886 32.3311 29.946 32.3311 38.7676 25.2467C42.4105 22.3176 45.0177 18.8775 46.3392 16.9702C45.0177 15.0288 42.4105 11.6228 38.7676 8.69371C29.946 1.60932 20.0886 1.60932 11.267 8.69371C7.62407 11.6228 5.01687 15.0629 3.69542 16.9702Z" fill="#005DAA"/>
<path d="M25 25.2574C22.7208 25.2574 20.5349 24.3875 18.9233 22.839C17.3117 21.2905 16.4063 19.1902 16.4062 17.0003C16.4063 14.8104 17.3117 12.7101 18.9233 11.1616C20.5349 9.61311 22.7208 8.74316 25 8.74316C27.2792 8.74316 29.4651 9.61311 31.0767 11.1616C32.6883 12.7101 33.5938 14.8104 33.5938 17.0003C33.5938 19.1902 32.6883 21.2905 31.0767 22.839C29.4651 24.3875 27.2792 25.2574 25 25.2574ZM25 12.046C22.1469 12.046 19.8438 14.2589 19.8438 17.0003C19.8438 19.7417 22.1469 21.9546 25 21.9546C27.8531 21.9546 30.1562 19.7417 30.1562 17.0003C30.1562 14.2589 27.8531 12.046 25 12.046Z" fill="#005DAA"/>
</svg>
