<svg width="98" height="86" viewBox="0 0 98 86" fill="none" xmlns="http://www.w3.org/2000/svg">
<path d="M10.5069 10.6345C12.5691 8.5311 15.0172 6.8626 17.7115 5.72425C20.4058 4.5859 23.2935 4 26.2098 4C29.1262 4 32.0139 4.5859 34.7082 5.72425C37.4025 6.8626 39.8506 8.5311 41.9127 10.6345L49.0004 17.8638L56.0881 10.6345C60.2535 6.38661 65.9026 4.00043 71.7928 4.00089C77.6829 4.00136 83.3317 6.38843 87.4964 10.637C91.661 14.8855 94.0005 20.6475 94 26.6554C93.9995 32.6633 91.6592 38.4249 87.4939 42.6728L80.4062 49.8972L80.4695 49.9617L49.0637 82L49.0004 81.9355L48.9372 82L17.5314 49.9617L17.5947 49.8972L10.5069 42.6728C8.44404 40.5694 6.80761 38.0721 5.69113 35.3235C4.57465 32.5749 4 29.6288 4 26.6536C4 23.6785 4.57465 20.7324 5.69113 17.9838C6.80761 15.2352 8.44404 12.7379 10.5069 10.6345Z" stroke="#005DAA" stroke-width="8" stroke-linejoin="round"/>
</svg>
