<svg width="54" height="47" viewBox="0 0 54 47" fill="none" xmlns="http://www.w3.org/2000/svg">
<path d="M5.61497 5.65748C6.76059 4.49792 8.12064 3.5781 9.61748 2.95055C11.1143 2.323 12.7186 2 14.3388 2C15.959 2 17.5633 2.323 19.0601 2.95055C20.557 3.5781 21.917 4.49792 23.0626 5.65748L27.0002 9.64288L30.9379 5.65748C33.2519 3.31569 36.3903 2.00024 39.6626 2.00049C42.935 2.00075 46.0732 3.3167 48.3869 5.65884C50.7006 8.00099 52.0002 11.1775 52 14.4895C51.9997 17.8016 50.6996 20.9778 48.3855 23.3196L44.4479 27.3023L44.483 27.3379L27.0354 45L27.0002 44.9644L26.9651 45L9.51745 27.3379L9.55259 27.3023L5.61497 23.3196C4.46891 22.1601 3.55978 20.7833 2.93952 19.2681C2.31925 17.7528 2 16.1287 2 14.4885C2 12.8484 2.31925 11.2243 2.93952 9.70904C3.55978 8.19378 4.46891 6.81705 5.61497 5.65748Z" stroke="#005DAA" stroke-width="4" stroke-linejoin="round"/>
</svg>
