<svg width="44" height="44" viewBox="0 0 44 44" fill="none" xmlns="http://www.w3.org/2000/svg">
<path fill-rule="evenodd" clip-rule="evenodd" d="M4.69527 21.8828C4.69417 18.8986 5.47005 15.9656 6.94656 13.3723C8.42307 10.7791 10.5493 8.6149 13.1161 7.09281C15.6829 5.57071 18.6017 4.74314 21.5854 4.69151C24.5691 4.63989 27.5149 5.366 30.1328 6.79839C30.4033 6.95816 30.7032 7.0619 31.0146 7.10344C31.3261 7.14499 31.6427 7.12349 31.9457 7.04023C32.2486 6.95697 32.5317 6.81364 32.7782 6.61877C33.0247 6.42389 33.2294 6.18146 33.3803 5.90587C33.5312 5.63028 33.6252 5.32716 33.6566 5.01454C33.688 4.70192 33.6562 4.38617 33.5631 4.08608C33.4701 3.78598 33.3176 3.50766 33.1148 3.26766C32.9121 3.02766 32.6631 2.83088 32.3828 2.68902C28.2333 0.416436 23.4588 -0.449623 18.7755 0.220728C14.0922 0.891079 9.75243 3.06171 6.40707 6.40707C3.06171 9.75243 0.891079 14.0922 0.220728 18.7755C-0.449623 23.4588 0.416436 28.2333 2.68902 32.3828C2.99839 32.9067 3.49937 33.2897 4.08603 33.4509C4.6727 33.6122 5.29907 33.5389 5.83273 33.2467C6.36639 32.9546 6.76551 32.4663 6.94572 31.8852C7.12592 31.3041 7.07309 30.6756 6.79839 30.1328C5.41656 27.6027 4.69333 24.7656 4.69527 21.8828ZM41.0765 11.3828C40.9347 11.1024 40.7379 10.8535 40.4979 10.6507C40.2579 10.4479 39.9796 10.2955 39.6795 10.2024C39.3794 10.1093 39.0636 10.0776 38.751 10.109C38.4384 10.1404 38.1353 10.2343 37.8597 10.3852C37.5841 10.5361 37.3416 10.7409 37.1468 10.9873C36.9519 11.2338 36.8086 11.5169 36.7253 11.8199C36.642 12.1228 36.6205 12.4394 36.6621 12.7509C36.7036 13.0623 36.8074 13.3622 36.9671 13.6328C38.753 16.8931 39.4337 20.6446 38.9071 24.3246C38.3805 28.0046 36.675 31.4146 34.0464 34.0432C31.4177 36.6719 28.0077 38.3774 24.3277 38.904C20.6478 39.4306 16.8963 38.7499 13.6359 36.964C13.0905 36.6648 12.4487 36.5945 11.8515 36.7686C11.2543 36.9426 10.7507 37.3468 10.4515 37.8921C10.1523 38.4375 10.082 39.0794 10.2561 39.6766C10.4301 40.2737 10.8343 40.7773 11.3796 41.0765C15.5291 43.3491 20.3036 44.2152 24.9869 43.5448C29.6702 42.8745 34.01 40.7038 37.3553 37.3585C40.7007 34.0131 42.8713 29.6733 43.5417 24.99C44.212 20.3067 43.346 15.5323 41.0734 11.3828M26.5703 21.8828C26.5703 23.126 26.0764 24.3183 25.1973 25.1973C24.3183 26.0764 23.126 26.5703 21.8828 26.5703C20.6396 26.5703 19.4473 26.0764 18.5682 25.1973C17.6891 24.3183 17.1953 23.126 17.1953 21.8828C17.1953 20.6396 17.6891 19.4473 18.5682 18.5682C19.4473 17.6891 20.6396 17.1953 21.8828 17.1953C23.126 17.1953 24.3183 17.6891 25.1973 18.5682C26.0764 19.4473 26.5703 20.6396 26.5703 21.8828ZM31.2578 21.8828C31.2578 24.3692 30.27 26.7537 28.5119 28.5119C26.7537 30.27 24.3692 31.2578 21.8828 31.2578C19.3964 31.2578 17.0118 30.27 15.2536 28.5119C13.4955 26.7537 12.5078 24.3692 12.5078 21.8828C12.5078 19.3964 13.4955 17.0118 15.2536 15.2536C17.0118 13.4955 19.3964 12.5078 21.8828 12.5078C24.3692 12.5078 26.7537 13.4955 28.5119 15.2536C30.27 17.0118 31.2578 19.3964 31.2578 21.8828Z" fill="#005DAA"/>
</svg>
