<svg width="39" height="60" viewBox="0 0 39 60" fill="none" xmlns="http://www.w3.org/2000/svg">
<path d="M19.5 40.8805C29.165 40.8805 37 32.1768 37 21.4402C37 10.7037 29.165 2 19.5 2C9.83502 2 2 10.7037 2 21.4402C2 32.1768 9.83502 40.8805 19.5 40.8805Z" stroke="#005DAA" stroke-width="4"/>
<path d="M7.87748 38.103L6.28498 44.5544C4.71498 50.9197 3.92998 54.1023 4.97748 55.8436C5.34498 56.4546 5.83748 56.9434 6.40998 57.2683C8.03998 58.1903 10.56 56.7323 15.5975 53.8163C17.2725 52.8443 18.1125 52.3611 19.0025 52.2555C19.3333 52.2188 19.6666 52.2188 19.9975 52.2555C20.8875 52.3611 21.725 52.8471 23.4025 53.8163C28.44 56.7323 30.96 58.1903 32.59 57.2683C33.1625 56.9434 33.655 56.4546 34.0225 55.8436C35.0725 54.1023 34.285 50.9197 32.715 44.5544L31.1225 38.103" stroke="#005DAA" stroke-width="4" stroke-linecap="round"/>
</svg>
