<svg width="88" height="88" viewBox="0 0 88 88" fill="none" xmlns="http://www.w3.org/2000/svg">
<path d="M4 84V75.1111C4 70.3962 5.87301 65.8743 9.20699 62.5403C12.541 59.2063 17.0628 57.3333 21.7778 57.3333H39.5556C44.2705 57.3333 48.7924 59.2063 52.1263 62.5403C55.4603 65.8743 57.3333 70.3962 57.3333 75.1111V84M61.7778 4.57778C65.6018 5.55689 68.9913 7.78089 71.4117 10.8992C73.8322 14.0174 75.146 17.8526 75.146 21.8C75.146 25.7474 73.8322 29.5826 71.4117 32.7008C68.9913 35.8191 65.6018 38.0431 61.7778 39.0222M84 84V75.1111C83.9774 71.1874 82.6574 67.3813 80.2456 64.2862C77.8339 61.1911 74.4659 58.9809 70.6667 58M12.8889 21.7778C12.8889 26.4927 14.7619 31.0146 18.0959 34.3486C21.4299 37.6825 25.9517 39.5556 30.6667 39.5556C35.3816 39.5556 39.9035 37.6825 43.2375 34.3486C46.5714 31.0146 48.4444 26.4927 48.4444 21.7778C48.4444 17.0628 46.5714 12.541 43.2375 9.20699C39.9035 5.87301 35.3816 4 30.6667 4C25.9517 4 21.4299 5.87301 18.0959 9.20699C14.7619 12.541 12.8889 17.0628 12.8889 21.7778Z" stroke="#005DAA" stroke-width="8" stroke-linecap="round" stroke-linejoin="round"/>
</svg>
