<svg width="45" height="56" viewBox="0 0 45 56" fill="none" xmlns="http://www.w3.org/2000/svg">
<path d="M22.5 56C15.9844 54.3667 10.605 50.6445 6.36188 44.8336C2.11875 39.0227 -0.00187376 32.5715 1.24227e-06 25.48V8.4L22.5 0L45 8.4V25.48C45 32.5733 42.8794 39.0255 38.6381 44.8364C34.3969 50.6473 29.0175 54.3685 22.5 56ZM22.5 50.12C27.375 48.58 31.4062 45.5 34.5937 40.88C37.7812 36.26 39.375 31.1267 39.375 25.48V12.25L22.5 5.95L5.625 12.25V25.48C5.625 31.1267 7.21875 36.26 10.4063 40.88C13.5938 45.5 17.625 48.58 22.5 50.12Z" fill="#005DAA"/>
</svg>
