<svg width="70" height="84" viewBox="0 0 70 84" fill="none" xmlns="http://www.w3.org/2000/svg">
<path fill-rule="evenodd" clip-rule="evenodd" d="M46.102 0H31.486V20.762C29.4057 20.2597 27.2698 20.0245 25.13 20.062C9.856 20.0585 0 29.0675 0 42.9555C0 57.3685 9.2925 64.876 27.1425 64.8935C33.103 64.8935 38.6155 64.3685 46.102 63.0385V0ZM27.069 31.4195C28.875 31.4195 30.289 31.5945 31.997 32.1195V53.9875C29.911 54.25 28.595 54.3375 26.978 54.3375C19.488 54.3375 15.4105 50.3405 15.4105 43.1025C15.4105 35.665 19.6805 31.4195 27.069 31.4195Z" fill="white"/>
<path d="M70 53.3155V21.7525H55.405V48.615C55.405 60.4695 54.747 64.974 52.6575 68.866C50.6625 72.6705 47.5405 75.166 41.09 77.987L54.6525 84C61.103 80.983 64.225 78.2495 66.5945 73.92C69.1355 69.412 70 64.183 70 53.3155ZM68.5475 0H53.9315V13.9755H68.5475V0Z" fill="white"/>
</svg>
