<svg width="60" height="76" viewBox="0 0 60 76" fill="none" xmlns="http://www.w3.org/2000/svg">
<path d="M18.7923 73.194C21.9458 74.4629 25.3665 75.2162 28.9585 75.3416C33.6499 75.509 38.3149 74.5687 42.5752 72.597C37.6193 70.6501 33.1313 67.8029 29.3007 64.2627C26.8177 68.2384 23.1451 71.3783 18.7923 73.194Z" fill="#F4F4F4"/>
<path d="M29.3 64.2643C20.5562 56.1775 15.2518 44.4728 15.7001 31.6352C15.7147 31.218 15.7367 30.8015 15.7625 30.385C11.8792 29.3782 7.79823 29.4209 3.9369 30.5088C1.60276 34.5974 0.19417 39.2887 0.0186236 44.3134C-0.434188 57.2823 7.41384 68.6136 18.7918 73.1956C23.1446 71.3799 26.8168 68.2433 29.3 64.2643Z" fill="#FFFDFD"/>
<path d="M29.3004 64.2631C31.3334 61.0099 32.566 57.1957 32.7094 53.0864C33.0867 42.2771 25.8202 32.9785 15.7627 30.3838C15.7369 30.8003 15.7151 31.217 15.7006 31.6339C15.2523 44.4718 20.5566 56.1762 29.3004 64.2631Z" fill="#F4F4F4"/>
<path d="M31.5846 0C25.8565 4.58905 21.3336 10.6397 18.597 17.6099C16.9936 21.6959 16.0358 26.0064 15.758 30.3869C25.8155 32.9814 33.0823 42.2802 32.7047 53.0895C32.5613 57.1986 31.325 61.009 29.2957 64.2661C33.1634 67.846 37.6652 70.6725 42.57 72.6005C52.5171 68.0025 59.5746 58.1084 59.9833 46.4059C60.2479 38.8236 57.3349 32.0659 53.2183 26.3619C48.8712 20.3292 31.5844 0 31.5844 0" fill="#D7D5D5"/>
</svg>
