<svg width="67" height="70" viewBox="0 0 67 70" fill="none" xmlns="http://www.w3.org/2000/svg">
<path d="M-0.924693 30.0613L19.3205 9.78109L25.2399 15.7356C24.3993 18.7128 25.7653 21.9702 28.4974 23.5464V42.951C26.3958 44.1419 24.9947 46.4186 24.9947 49.0105C24.9947 50.8684 25.7328 52.6502 27.0465 53.964C28.3603 55.2777 30.1421 56.0158 32 56.0158C33.8579 56.0158 35.6397 55.2777 36.9535 53.964C38.2672 52.6502 39.0053 50.8684 39.0053 49.0105C39.0053 46.4186 37.6042 44.1419 35.5026 42.951V25.9282L42.7531 33.2487C42.5079 33.7741 42.5079 34.3695 42.5079 35C42.5079 36.8579 43.2459 38.6397 44.5597 39.9535C45.8734 41.2672 47.6552 42.0053 49.5131 42.0053C51.371 42.0053 53.1529 41.2672 54.4666 39.9535C55.7803 38.6397 56.5184 36.8579 56.5184 35C56.5184 33.1421 55.7803 31.3603 54.4666 30.0465C53.1529 28.7328 51.371 27.9947 49.5131 27.9947C48.8827 27.9947 48.2872 27.9947 47.7618 28.2399L38.7601 19.2382C39.195 17.6159 39.0264 15.8909 38.2856 14.3835C37.5448 12.8761 36.2821 11.6888 34.732 11.042C33.2259 10.4816 31.6497 10.3415 30.2487 10.7268L24.2942 4.80736L27.0613 2.07531C29.7933 -0.691769 34.2067 -0.691769 36.9387 2.07531L64.9247 30.0613C67.6918 32.7933 67.6918 37.2067 64.9247 39.9387L36.9387 67.9247C34.2067 70.6918 29.7933 70.6918 27.0613 67.9247L-0.924693 39.9387C-3.69177 37.2067 -3.69177 32.7933 -0.924693 30.0613Z" fill="white"/>
</svg>
