<svg width="245" height="236" viewBox="0 0 245 236" fill="none" xmlns="http://www.w3.org/2000/svg">
<path d="M6.10352e-05 70.6832C6.10352e-05 66.3993 1.18875 62.5049 3.56616 59C5.94356 55.495 9.29192 52.6716 13.6112 50.5297L108.889 3.21287C113.199 1.07096 117.736 0 122.5 0C127.264 0 131.801 1.07096 136.111 3.21287L231.389 50.5297C235.699 52.6716 239.043 55.495 241.42 59C243.798 62.5049 244.991 66.3993 245 70.6832V165.317C245 169.601 243.807 173.495 241.42 177C239.034 180.505 235.69 183.328 231.389 185.47L136.111 232.787C131.801 234.929 127.264 236 122.5 236C117.736 236 113.199 234.929 108.889 232.787L13.6112 185.47C9.30098 183.328 5.95264 180.505 3.56616 177C1.17967 173.495 -0.00901794 169.601 6.10352e-05 165.317V70.6832ZM27.2223 70.6832V165.317L122.5 212.342L217.778 165.317V70.6832L122.5 23.3663L27.2223 70.6832Z" fill="white" fill-opacity="0.09"/>
</svg>
