<svg width="70" height="97" viewBox="0 0 70 97" fill="none" xmlns="http://www.w3.org/2000/svg">
<path d="M52.9303 20.0558L53.1759 20.1968C49.8513 21.9596 40.3513 27.6401 40.3513 34.8806C40.3513 37.322 41.7416 39.6753 43.0443 41.8876C44.1934 43.8354 45.2767 45.6643 45.2767 47.3433C45.2767 51.5607 41.1846 54.835 38.8732 56.3422L38.4346 56.0866C39.3074 55.0157 40.382 53.2221 40.382 51.3095C40.382 48.6742 39.0355 46.5677 37.6714 44.4303C36.2591 42.2225 34.8293 39.9794 34.8293 37.0708C34.8293 26.9702 48.4917 21.5497 52.9303 20.0558ZM34.9696 25.3969C40.4653 20.4612 46.4697 15.0672 46.4697 6.95408C46.4697 3.28314 44.9741 0.938669 44.2329 0L43.9916 0.136614C44.1671 0.868159 44.4302 2.21667 44.4302 3.97943C44.4302 11.3654 38.1934 16.5391 32.1582 21.5541C26.4959 26.2607 21.009 30.8174 21.009 36.9166C21.009 45.6643 29.5968 51.0451 33.224 53.319L33.5003 53.4953L33.7196 53.3631C33.5237 53.1457 33.3161 52.9224 33.0968 52.6933C30.3073 49.7098 26.0704 45.1839 26.0704 38.2607C26.0704 33.3999 30.338 29.5615 34.9696 25.3969ZM32.9916 69.0605C40.7285 69.0605 46.1408 67.9455 48.5443 67.2625L52.1935 69.3778C48.7154 71.1538 41.0048 72.5067 32.974 72.5067C23.531 72.5067 13.2063 70.4707 13.1756 67.756C13.1537 66.2577 16.5309 65.2617 20.1713 64.6183L20.3906 64.7461C20.3906 64.7461 19.1581 65.1912 19.1713 66.2136C19.1888 67.756 25.3994 69.0605 32.9872 69.0605M17.509 78.6279C17.509 76.8298 21.1888 75.9837 22.8731 75.6444L23.0924 75.7766C22.8029 75.9925 22.645 76.2878 22.645 76.539C22.645 77.7156 26.724 78.7909 32.9784 78.7909C38.5837 78.7909 41.6978 78.099 43.5487 77.6539L47.8908 80.1791C47.6934 80.3201 43.4171 83.0215 32.9696 83.0215C25.3775 83.0215 17.509 81.1178 17.509 78.6279ZM54.9172 71.0127C60.0926 68.0469 65.2725 64.539 65.5664 58.907C65.7594 55.2096 62.3778 52.4994 58.6804 53.2221L58.8777 52.7285V52.7197C59.8076 52.4377 60.9567 52.2085 62.2418 52.2085C66.3778 52.2085 69.5489 54.6984 69.9524 58.1843C70.7682 65.1736 60.9084 69.7215 55.3865 71.286L54.9172 71.0127ZM63.5795 84.1805C63.6234 88.9841 47.3601 91.8397 32.8249 91.9675C20.2765 92.0777 0.0439189 89.6936 5.89005e-05 84.8945C-0.0262571 81.5761 8.77206 79.2757 13.5528 78.6146L14.0572 78.9055C14.0572 78.9055 6.92994 80.5669 6.95187 83.5856C6.97819 86.5955 21.9739 89.2 32.803 89.1075C49.5794 88.9576 60.9348 86.2121 62.2769 82.4883L62.5137 82.3517C63.005 82.713 63.5664 83.308 63.5795 84.1805ZM12.544 93.9639C18.75 94.9601 25.0272 95.4391 31.3117 95.3961C58.54 95.1581 66.2243 88.4332 67.4085 86.9701L67.6146 87.0935C67.3339 92.417 52.9347 96.8416 35.1758 96.9958C26.1362 97.0751 17.9081 96.0263 11.9958 94.2856L12.544 93.9639ZM23.9564 53.0546C19.2239 53.4204 9.06154 54.932 9.06154 57.6202C9.06154 59.6562 18.3774 62.525 32.974 62.525C46.1057 62.525 54.3952 60.0352 56.3295 59.0877L53.5093 57.4351C51.4917 57.9859 43.996 59.665 32.974 59.665C26.4827 59.665 15.2984 58.4619 15.2984 56.6242C15.2984 54.976 22.2766 53.7024 24.281 53.3411L24.4082 53.319L23.9564 53.0546Z" fill="white"/>
</svg>
