<svg width="75" height="78" viewBox="0 0 75 78" fill="none" xmlns="http://www.w3.org/2000/svg">
<path d="M72.5 2.5L63.75 65.9375L37.5 74.6875L11.25 65.9375L2.50003 2.5H72.5Z" stroke="white" stroke-width="5" stroke-linecap="round" stroke-linejoin="round"/>
<path d="M17.8125 20H30.9375V55L22.1875 50.625M57.1875 20H46.25C45.6699 20 45.1135 20.2305 44.7032 20.6407C44.293 21.0509 44.0625 21.6073 44.0625 22.1875V35.3125C44.0625 35.8927 44.293 36.4491 44.7032 36.8593C45.1135 37.2695 45.6699 37.5 46.25 37.5H52.4757C52.7888 37.5 53.0982 37.5673 53.3831 37.6973C53.668 37.8272 53.9217 38.0168 54.127 38.2532C54.3323 38.4896 54.4844 38.7673 54.5732 39.0676C54.6619 39.3679 54.6851 39.6837 54.6413 39.9937L52.8125 52.8125L44.0625 55" stroke="white" stroke-width="5" stroke-linecap="round" stroke-linejoin="round"/>
</svg>
