<svg width="70" height="70" viewBox="0 0 70 70" fill="none" xmlns="http://www.w3.org/2000/svg">
<mask id="mask0_160_165" style="mask-type:luminance" maskUnits="userSpaceOnUse" x="0" y="0" width="70" height="70">
<path d="M0 0H70V70H0V0Z" fill="white"/>
</mask>
<g mask="url(#mask0_160_165)">
<path d="M34.7492 0C16.975 0 18.0833 7.74667 18.0833 7.74667L18.1037 15.7733H35.0612V18.1825H11.375C11.375 18.1825 0 16.8846 0 34.9096C0 52.9346 9.92542 52.2929 9.92542 52.2929H15.8462V43.9308C15.8462 43.9308 15.5283 33.9558 25.6171 33.9558H42.4346C42.4346 33.9558 51.8846 34.1075 51.8846 24.7742V9.33917C51.8846 9.33917 53.3196 0 34.7492 0ZM25.3983 5.39583C27.0842 5.39583 28.4492 6.76667 28.4492 8.46417C28.4492 10.1587 27.0842 11.5296 25.3983 11.5296C23.7125 11.5296 22.3475 10.1587 22.3475 8.46417C22.3475 6.76667 23.7096 5.39583 25.3983 5.39583Z" fill="white"/>
<path d="M35.2537 69.9999C53.0221 69.9999 51.9137 62.2532 51.9137 62.2532L51.8933 54.2265H34.9358V51.8174H58.6279C58.6279 51.8174 70.0029 53.1153 70.0029 35.0903C70.0029 17.0653 60.0746 17.7069 60.0746 17.7069H54.1537V26.069C54.1537 26.069 54.4717 36.044 44.3829 36.044H27.5683C27.5683 36.044 18.1183 35.8923 18.1183 45.2257V60.6607C18.1183 60.6607 16.6833 69.9999 35.2537 69.9999ZM44.6046 64.604C42.9158 64.604 41.5537 63.2332 41.5537 61.5357C41.5537 59.8411 42.9158 58.4703 44.6046 58.4703C46.2904 58.4703 47.6554 59.8411 47.6554 61.5357C47.6554 63.2332 46.2904 64.604 44.6046 64.604Z" fill="white"/>
</g>
</svg>
