<svg width="70" height="70" viewBox="0 0 70 70" fill="none" xmlns="http://www.w3.org/2000/svg">
<path d="M63.542 50.4004C54.9243 61.8952 36.5231 58.0159 24.7222 58.5716C24.7222 58.5716 22.6315 58.6904 20.5303 59.0364C20.5303 59.0364 21.3261 58.6974 22.3418 58.3444C30.6279 55.4751 34.5441 54.8984 39.5807 52.3086C49.0396 47.4577 58.4565 36.8855 60.3727 25.9044C56.7707 36.4661 45.8179 45.5564 35.846 49.2471C29.0223 51.7704 16.6769 54.2239 16.6735 54.2239L16.1743 53.9582C7.78002 49.8692 7.53569 31.6606 22.7851 25.7926C29.4726 23.2203 35.8634 24.6323 43.092 22.9093C50.7987 21.0744 59.727 15.2903 63.3535 7.7273C67.4198 19.8128 72.3063 38.7134 63.542 50.4004ZM63.6886 3.98772C62.714 6.32861 61.4663 8.54583 59.9713 10.5931C56.7227 7.23994 52.8344 4.5744 48.5372 2.7547C44.2401 0.935 39.6216 -0.00176409 34.956 2.49396e-06C15.6787 2.49396e-06 6.26514e-06 15.6992 6.26514e-06 34.9982C-0.00287713 39.8124 0.989532 44.5749 2.91477 48.9862C4.84 53.3975 7.65637 57.362 11.1866 60.6301L11.9545 61.3081C11.3948 60.7467 11.0806 59.9858 11.0811 59.1926C11.0816 58.3993 11.3967 57.6388 11.9571 57.0781C12.5175 56.5175 13.2773 56.2026 14.0695 56.2028C14.8617 56.2029 15.6214 56.5181 16.1815 57.079C16.7417 57.6399 17.0565 58.4006 17.0566 59.1938C17.0568 59.987 16.7423 60.7478 16.1824 61.309C15.6225 61.8701 14.8629 62.1856 14.0707 62.1861C13.2786 62.1866 12.5186 61.872 11.958 61.3116L12.478 61.7729C18.7621 67.0927 26.727 70.0079 34.956 70C53.3781 70 68.5088 55.6428 69.8037 37.5251C70.7601 28.6514 68.1423 17.3838 63.6886 3.98772Z" fill="white"/>
</svg>
