<svg width="25" height="21" viewBox="0 0 25 21" fill="none" xmlns="http://www.w3.org/2000/svg">
<g clip-path="url(#clip0_220_4)">
<path fill-rule="evenodd" clip-rule="evenodd" d="M3.41894 -7.73472C3.15071 -8.00885 3 -8.38082 3 -8.7687C3 -9.15659 3.15071 -9.52856 3.41894 -9.80268L11.9895 -18.5714C12.2575 -18.8458 12.621 -19 13.0002 -19C13.3793 -19 13.7429 -18.8458 14.0108 -18.5714L22.5814 -9.80268C23.1395 -9.23163 23.1395 -8.30577 22.5814 -7.73472C22.0232 -7.16368 21.1183 -7.16368 20.5602 -7.73472L13.0002 -15.4713L5.44017 -7.73472C5.17225 -7.4603 4.80868 -7.3061 4.42956 -7.3061C4.05044 -7.3061 3.68687 -7.4603 3.41894 -7.73472ZM20.5602 7.73472L13.0002 15.4713L5.44017 7.73472C4.88202 7.16368 3.97709 7.16368 3.41894 7.73472C2.86079 8.30577 2.86079 9.23163 3.41894 9.80268L11.9895 18.5714C12.2575 18.8458 12.621 19 13.0002 19C13.3793 19 13.7429 18.8458 14.0108 18.5714L22.5814 9.80268C23.1395 9.23163 23.1395 8.30577 22.5814 7.73472C22.0232 7.16368 21.1183 7.16368 20.5602 7.73472Z" fill="#61758A"/>
</g>
<defs>
<clipPath id="clip0_220_4">
<rect width="25" height="21" fill="white" transform="matrix(-1 0 0 -1 25 21)"/>
</clipPath>
</defs>
</svg>
